<?xml version="1.0" standalone="no"?>
<!DOCTYPE svg PUBLIC "-//W3C//DTD SVG 20010904//EN"
 "http://www.w3.org/TR/2001/REC-SVG-20010904/DTD/svg10.dtd">
<svg version="1.0" xmlns="http://www.w3.org/2000/svg"
 width="293.000000pt" height="1158.000000pt" viewBox="0 0 293.000000 1158.000000"
 preserveAspectRatio="xMidYMid meet">

<g transform="translate(0.000000,1158.000000) scale(0.100000,-0.100000)"
fill="#000000" stroke="none">
<path d="M1032 11137 l-432 -432 145 -145 145 -145 288 288 288 287 282 -284
c155 -156 282 -288 282 -293 0 -4 -61 -69 -135 -143 -74 -74 -135 -139 -135
-145 0 -5 62 -72 137 -147 l138 -138 -143 -142 -142 -143 -140 140 -140 140
-145 -145 -145 -145 -140 140 c-77 77 -140 144 -140 150 0 5 63 73 140 150
l140 140 -145 145 -145 145 -145 -145 -145 -145 145 -145 145 -145 -140 -140
c-77 -77 -140 -144 -140 -150 0 -6 63 -73 140 -150 l140 -140 -140 -140 c-77
-77 -140 -145 -140 -150 0 -5 62 -72 137 -147 l138 -138 -143 -143 -142 -142
145 -145 145 -145 -140 -140 c-77 -77 -140 -145 -140 -150 0 -6 61 -71 135
-145 74 -74 135 -139 135 -145 0 -5 -63 -73 -140 -150 l-140 -140 145 -145
145 -145 -142 -142 -143 -143 145 -145 145 -145 -145 -145 -146 -144 138 -138
c76 -76 138 -142 138 -148 0 -6 -63 -73 -140 -150 l-140 -140 140 -140 c77
-77 140 -145 140 -150 0 -6 -63 -73 -140 -150 l-140 -140 142 -142 143 -143
-145 -145 -144 -144 144 -146 145 -145 -143 -143 -142 -142 -144 144 -143 143
-142 -142 c-77 -77 -141 -144 -141 -148 0 -4 63 -70 140 -147 l140 -140 -140
-140 c-77 -77 -140 -145 -140 -150 0 -6 193 -204 430 -440 l430 -430 -145
-145 -145 -145 145 -145 145 -145 -142 -142 -142 -142 20 -22 c10 -13 72 -75
136 -140 65 -65 118 -123 118 -131 0 -7 -62 -75 -137 -150 l-138 -138 288
-287 287 -288 143 143 142 142 140 -140 c77 -77 144 -140 150 -140 6 0 138
128 295 285 l285 285 -145 145 -145 145 145 145 145 145 -145 145 -145 145
145 145 145 145 -143 142 -142 143 432 432 433 433 -145 145 -145 145 145 145
145 145 -145 145 -145 145 -140 -140 c-77 -77 -145 -140 -150 -140 -6 0 -73
63 -150 140 l-140 140 145 145 145 145 -145 145 -145 145 145 145 145 145
-145 145 -145 145 143 143 142 142 -142 143 -143 142 145 145 145 145 -145
145 -145 145 145 145 145 145 -145 145 -145 145 145 145 145 145 -145 145
-145 145 145 145 145 145 -143 143 -142 142 142 143 143 142 -145 145 -145
145 145 145 145 145 -145 145 -145 145 145 145 145 145 -145 145 -145 145 144
144 143 143 -143 142 -142 142 144 145 144 144 -145 145 c-139 140 -718 718
-723 722 -2 1 -197 -192 -435 -430z m293 -1737 l140 -140 142 142 143 143 142
-143 143 -142 -142 -142 -143 -143 -140 140 -140 140 -138 -138 c-75 -75 -142
-137 -147 -137 -6 0 -73 63 -150 140 l-140 140 140 140 c77 77 142 140 145
140 3 0 68 -63 145 -140z m283 -577 c75 75 142 137 147 137 5 0 72 -62 147
-137 l138 -138 -142 -142 -143 -143 -141 141 -140 140 -143 -140 c-78 -78
-145 -141 -149 -141 -4 0 -70 63 -147 140 l-140 140 145 145 145 145 142 -142
143 -143 138 138z m4 -575 l143 142 142 -142 143 -143 -142 -142 -143 -143
-142 142 -143 143 -142 -143 -143 -142 -142 142 -143 143 142 142 143 143 142
-142 143 -143 142 143z m-285 -580 l143 -143 142 143 143 142 142 -142 143
-143 -142 -142 -143 -143 -142 142 -143 143 -143 -143 -142 -142 -145 145
-145 145 140 140 c77 77 142 140 145 140 2 0 69 -64 147 -142z m-7 -573 c74
-74 139 -135 145 -135 6 0 71 61 145 135 74 74 138 135 143 135 4 0 71 -64
148 -142 l141 -141 -139 -139 c-76 -76 -142 -138 -148 -138 -5 0 -72 62 -147
137 l-138 138 -142 -143 -143 -142 143 -143 142 -142 -145 -145 -145 -145
-142 143 -143 142 145 145 145 145 -145 145 -145 145 140 140 c77 77 142 140
145 140 3 0 66 -61 140 -135z m568 -863 l-138 -138 -137 138 -138 138 138 138
137 138 138 -138 138 -138 -138 -138z m-563 -582 l-145 -145 -142 143 -143
142 145 145 145 145 142 -142 143 -143 -145 -145z m575 285 l136 -136 -141
-139 -140 -140 -138 138 -137 137 137 137 c76 76 140 138 143 138 2 0 66 -61
140 -135z m-440 -719 c0 -12 -262 -276 -275 -276 -5 0 -72 62 -147 137 l-138
138 142 142 143 143 137 -137 c76 -76 138 -142 138 -147z m440 139 l135 -135
-140 -140 -140 -140 -137 137 -138 138 137 137 c76 76 140 138 143 138 3 0 66
-61 140 -135z m-575 -575 l140 -140 -143 -143 -142 -142 -142 142 -142 142
140 140 c76 78 141 141 144 141 3 0 68 -63 145 -140z m575 -5 l135 -135 -138
-138 -138 -138 -137 138 -136 138 134 135 c74 74 137 135 140 135 3 0 66 -61
140 -135z m-575 -575 l140 -140 -143 -143 -142 -142 -142 142 -143 143 140
140 c77 77 142 140 145 140 3 0 68 -63 145 -140z m575 -5 l135 -135 -138 -138
-138 -138 -137 138 -136 138 134 135 c74 74 137 135 140 135 3 0 66 -61 140
-135z"/>
</g>
</svg>
